<svg width="110" height="32" viewBox="0 0 110 32" fill="none" xmlns="http://www.w3.org/2000/svg">
<path fill-rule="evenodd" clip-rule="evenodd" d="M28.8129 6.67534C28.8091 6.66994 28.8042 6.66283 28.7988 6.65572C28.7971 6.65316 28.7954 6.65074 28.7936 6.64818C28.7732 6.61988 28.7478 6.58517 28.7329 6.56455C28.0825 7.70048 27.1588 9.31371 26.1667 11.0448C26.1797 11.072 26.1926 11.099 26.2053 11.1262C26.894 12.6019 27.2797 14.2491 27.2797 15.9873C27.2797 22.3128 22.1821 27.4408 15.8936 27.4408C9.60506 27.4408 4.50731 22.3128 4.50731 15.9873C4.50731 9.66187 9.60506 4.5339 15.8936 4.5339C17.9697 4.5339 19.8431 5.0506 21.519 6.02709C21.4055 6.21838 16.1494 15.381 15.8936 15.8282C15.784 15.6366 13.3483 11.3839 13.3347 11.3609C13.1521 11.0552 12.9111 11.0411 12.8051 11.0411H8.52754C8.25792 11.0411 8.08203 11.3087 8.2377 11.5777C8.83832 12.616 13.0484 19.9559 13.3683 20.4945C13.9971 21.4556 14.9047 21.9102 15.8936 21.918C15.9008 21.918 15.908 21.9174 15.9152 21.9173C16.8955 21.9029 17.7945 21.4487 18.4186 20.4945C19.304 19.0036 27.3621 4.91975 27.3621 4.91975C24.4652 1.84107 20.4403 0 15.8936 0C7.11578 0 0 7.1579 0 15.9873C0 24.8168 7.11578 31.9745 15.8936 31.9745C24.6712 31.9745 31.787 24.8168 31.787 15.9873C31.787 12.5129 30.6842 9.29778 28.8129 6.67534ZM89.0832 16.3021C89.0718 15.486 89.0269 14.6729 88.7707 13.8867C88.4782 12.988 87.9647 12.2614 87.1278 11.7817C86.4303 11.3819 85.6649 11.2077 84.8749 11.1235C84.533 11.0869 84.191 11.0659 83.8487 11.0586V11.0569H83.7109C83.6276 11.0561 83.5444 11.0561 83.4612 11.0569H79.13C78.55 11.0569 78.0801 11.5637 78.0801 12.1887C78.0801 12.1887 78.0805 20.0808 78.0804 20.2456C78.0802 20.2495 78.0801 20.2536 78.0801 20.2576C78.0801 21.1816 78.775 21.9307 79.6324 21.9307C80.4896 21.9307 81.194 21.1816 81.194 20.2576C81.1947 18.838 81.1975 13.8614 81.1975 13.8614C81.1975 13.7459 81.2845 13.6522 81.3918 13.6522H83.4182C83.5183 13.6488 83.6183 13.6491 83.7184 13.6522H83.8487C84.0913 13.6661 84.334 13.7035 84.5757 13.7526C85.2227 13.8836 85.6616 14.2721 85.8187 14.9173C85.9013 15.257 85.9613 15.6112 85.9647 15.9596C85.9787 17.474 85.9647 18.7432 85.9647 20.2576C85.9647 21.1816 86.6785 21.9307 87.5357 21.9307C88.3931 21.9307 89.088 21.1816 89.088 20.2576C89.088 20.2202 89.0865 20.1833 89.0842 20.1465C89.0858 19.4359 89.0852 18.9707 89.0852 18.2602C89.0852 17.6075 89.0927 16.9547 89.0832 16.3021ZM109.666 11.3081C109.494 11.1313 109.249 11.0427 108.933 11.0427H107.909C107.593 11.0427 107.348 11.1313 107.176 11.3081C107.004 11.485 106.917 11.7326 106.917 12.051V19.2894C106.319 19.353 105.788 19.3848 105.324 19.3848C104.248 19.3848 103.488 19.155 103.045 18.6951C102.602 18.2353 102.38 17.4072 102.38 16.2114V12.051C102.38 11.7326 102.294 11.485 102.122 11.3081C101.949 11.1313 101.705 11.0427 101.389 11.0427H100.376C100.059 11.0427 99.8128 11.1313 99.6369 11.3081C99.461 11.485 99.3732 11.7326 99.3732 12.051V16.3919C99.3732 17.4179 99.5085 18.2882 99.7794 19.0028C100.05 19.7176 100.451 20.2871 100.982 20.7116C101.513 21.1362 102.139 21.4441 102.86 21.6351C103.581 21.8261 104.431 21.9215 105.408 21.9215C105.88 21.9215 106.383 21.9003 106.917 21.8579V22.0915C106.917 22.6786 106.699 23.1104 106.263 23.3863C105.827 23.6622 105.222 23.8003 104.448 23.8003C103.808 23.8003 103.031 23.6976 102.116 23.4924C101.765 23.4143 101.492 23.4517 101.299 23.6039C101.105 23.7559 101.009 24.0089 101.009 24.3628V24.766C101.009 25.3744 101.29 25.7459 101.853 25.8806C102.852 26.1422 103.822 26.2731 104.765 26.2731C106.305 26.2731 107.551 25.9209 108.5 25.2171C109.45 24.513 109.925 23.4712 109.925 22.0915V12.051C109.925 11.7326 109.838 11.485 109.666 11.3081ZM96.9512 11.0427H94.0075V9.56746C94.0075 9.24903 93.9213 9.00327 93.7489 8.82976C93.5766 8.65653 93.3323 8.56992 93.0157 8.56992H91.95C91.6333 8.56992 91.387 8.65653 91.2114 8.82976C91.0354 9.00327 90.9476 9.24903 90.9476 9.56746V17.7825C90.9476 18.5324 91.0531 19.1798 91.2642 19.7247C91.4751 20.2695 91.7653 20.7049 92.1346 21.0303C92.5039 21.3557 92.9505 21.5926 93.4745 21.7413C93.9986 21.89 94.5649 21.9535 95.1734 21.9323C95.7817 21.9109 96.4343 21.8155 97.1307 21.6458C97.6653 21.5326 97.9326 21.1754 97.9326 20.5739V20.0325C97.9326 19.7635 97.8604 19.5654 97.7162 19.4381C97.5719 19.3108 97.3347 19.2471 97.0041 19.2471C96.8986 19.2471 96.7051 19.2666 96.4237 19.3054C96.1422 19.3444 95.8961 19.3637 95.6851 19.3637C95.0942 19.3637 94.667 19.2401 94.4031 18.9924C94.1395 18.7446 94.0075 18.3413 94.0075 17.7825V13.5264H96.9512C97.268 13.5264 97.5121 13.4399 97.6846 13.2662C97.857 13.093 97.9431 12.8471 97.9431 12.5287V12.0511C97.9431 11.7327 97.857 11.485 97.6846 11.3081C97.5121 11.1313 97.268 11.0427 96.9512 11.0427ZM73.2407 18.5183C73.2407 18.9148 73.1701 19.1976 73.0296 19.3675C72.8886 19.5373 72.6003 19.6221 72.1643 19.6221H70.5922C69.9592 19.6221 69.5387 19.5426 69.3313 19.3833C69.1237 19.2242 69.02 18.9394 69.02 18.5291C69.02 18.1044 69.1254 17.8125 69.3367 17.6533C69.5475 17.4942 69.9697 17.4147 70.6028 17.4147H73.2407V18.5183ZM74.7968 11.8902C74.3362 11.5613 73.8015 11.3154 73.1932 11.1525C72.5845 10.9898 71.9074 10.9085 71.1619 10.9085C70.1771 10.9085 69.0869 11.0359 67.8912 11.2906C67.1947 11.425 66.8465 11.8001 66.8465 12.4156V12.819C66.8465 13.1657 66.9432 13.4152 67.1367 13.5672C67.33 13.7195 67.5991 13.7636 67.9439 13.6999C69.0341 13.4735 69.9625 13.3603 70.7294 13.3603C72.4034 13.3603 73.2407 13.9334 73.2407 15.0796V15.2601H70.4444C69.7551 15.2601 69.1625 15.3097 68.6665 15.4087C68.1707 15.5079 67.731 15.6793 67.3477 15.9234C66.9642 16.1674 66.6778 16.5055 66.4877 16.937C66.2977 17.3686 66.2029 17.8993 66.2029 18.5292C66.2029 19.7391 66.5563 20.5846 67.2633 21.0657C67.9701 21.5468 69.0305 21.7873 70.4444 21.7873H72.9029C74.0777 21.7873 74.9288 21.5468 75.4564 21.0657C75.9839 20.5846 76.2476 19.7851 76.2476 18.667V15.0796C76.2476 14.3722 76.1212 13.746 75.868 13.2011C75.6146 12.6564 75.2575 12.2192 74.7968 11.8902ZM63.3383 6.51074H62.262C61.9456 6.51074 61.7012 6.5992 61.529 6.77599C61.3565 6.95305 61.2704 7.20052 61.2704 7.51896V20.7328C61.2704 21.0513 61.3565 21.2973 61.529 21.4705C61.7012 21.644 61.9456 21.7305 62.262 21.7305H63.3383C63.655 21.7305 63.8992 21.644 64.0717 21.4705C64.244 21.2973 64.3301 21.0513 64.3301 20.7328V7.51896C64.3301 7.20052 64.244 6.95305 64.0717 6.77599C63.8992 6.5992 63.655 6.51074 63.3383 6.51074ZM55.9393 18.7631C55.542 19.2408 54.9316 19.4795 54.1087 19.4795C53.2857 19.4795 52.6772 19.239 52.2834 18.758C51.8893 18.2769 51.6924 17.5198 51.6924 16.4866C51.6924 15.4465 51.8893 14.6876 52.2834 14.21C52.6772 13.7324 53.2857 13.4935 54.1087 13.4935C54.9316 13.4935 55.542 13.7324 55.9393 14.21C56.3367 14.6876 56.5355 15.4465 56.5355 16.4866C56.5355 17.5266 56.3367 18.2855 55.9393 18.7631ZM54.1087 10.9462C52.3501 10.9462 50.9995 11.4258 50.057 12.3845C49.1143 13.3432 48.6432 14.7107 48.6432 16.4865C48.6432 18.2556 49.1143 19.6194 50.057 20.5781C50.9995 21.5369 52.3501 22.0161 54.1087 22.0161C55.8672 22.0161 57.2175 21.5369 58.1603 20.5781C59.1028 19.6194 59.5741 18.2556 59.5741 16.4865C59.5741 14.7107 59.1028 13.3432 58.1603 12.3845C57.2175 11.4258 55.8672 10.9462 54.1087 10.9462ZM47.0173 11.0427H45.92C45.3431 11.0427 44.9738 11.3223 44.8121 11.8812L42.9655 18.1326C42.8318 18.557 42.7017 18.8349 42.5752 18.9657C42.4485 19.0967 42.2884 19.162 42.095 19.162C41.9015 19.162 41.7432 19.0967 41.6204 18.9657C41.4972 18.8349 41.3687 18.557 41.2351 18.1326L39.3992 11.8812C39.2373 11.3223 38.8647 11.0427 38.2808 11.0427H37.1939C36.8352 11.0427 36.5802 11.1472 36.429 11.3557C36.2777 11.5645 36.2584 11.8424 36.3711 12.1891L38.5236 18.78C38.9103 19.997 39.3552 20.8249 39.8583 21.2635C40.3612 21.7024 41.1086 21.9215 42.1004 21.9215C43.0992 21.9215 43.8484 21.7005 44.3477 21.2584C44.8471 20.8162 45.2904 19.9899 45.6772 18.78L47.8403 12.1891C47.9527 11.8424 47.9333 11.5645 47.7823 11.3557C47.6308 11.1472 47.376 11.0427 47.0173 11.0427Z" fill="#FF5100"/>
</svg>
